<svg xmlns="http://www.w3.org/2000/svg" xmlns:xlink="http://www.w3.org/1999/xlink" version="1.1" x="0px" y="0px" viewBox="0 0 90 90" enable-background="new 0 0 90 90" xml:space="preserve"><path d="M48.7,82.5c-3.8,0-7.4-1.5-10.1-4.2L19.1,59.1c-2.7-2.7-4.2-6.3-4.3-10.2c0-3.8,1.5-7.5,4.2-10.2l6.4-6.5  c2.7-2.7,6.4-4.3,10.2-4.3c3.8,0,7.4,1.5,10.1,4.2l19.4,19.2c5.6,5.6,5.7,14.7,0.1,20.4l-6.4,6.5C56.2,81,52.5,82.5,48.7,82.5z   M35.7,31c-3.1,0-5.9,1.2-8.1,3.4l-6.4,6.5c-2.1,2.2-3.3,5-3.3,8.1c0,3,1.2,5.9,3.4,8l19.4,19.2c2.1,2.1,5,3.3,8,3.3  c3.1,0,5.9-1.2,8.1-3.4l6.4-6.5c4.4-4.5,4.4-11.7-0.1-16.1L43.7,34.3C41.5,32.2,38.7,31,35.7,31z"/><path d="M26.6,63.2c-0.1,0-0.3,0-0.4-0.1c-0.2-0.2-0.2-0.5,0-0.7L49.6,39c0.2-0.2,0.5-0.2,0.7,0s0.2,0.5,0,0.7L26.9,63.1  C26.8,63.2,26.7,63.2,26.6,63.2z"/><path d="M31.8,49.2c-0.7,0-1.4-0.3-1.9-0.8L26.5,45c-1.1-1.1-1.1-2.8,0-3.9l1.1-1.1c1-1,2.9-1.1,3.9,0l3.4,3.4  c0.5,0.5,0.8,1.2,0.8,2s-0.3,1.4-0.8,2l-1.1,1.1C33.3,48.9,32.6,49.2,31.8,49.2z M29.5,40.2c-0.5,0-0.9,0.2-1.3,0.5l-1.1,1.1  c-0.7,0.7-0.7,1.8,0,2.5l3.4,3.4c0.7,0.7,1.8,0.7,2.5,0l1.1-1.1c0.3-0.3,0.5-0.8,0.5-1.2c0-0.5-0.2-0.9-0.5-1.2l-3.4-3.4  C30.5,40.4,30,40.2,29.5,40.2z"/><path d="M37.8,52c-0.1,0-0.3,0-0.4-0.1l-3.5-3.5c-0.2-0.2-0.2-0.5,0-0.7s0.5-0.2,0.7,0l3.5,3.5c0.2,0.2,0.2,0.5,0,0.7  C38.1,52,37.9,52,37.8,52z"/><path d="M26.8,41.2c-0.1,0-0.3,0-0.4-0.1l-4-4c-0.2-0.2-0.2-0.5,0-0.7s0.5-0.2,0.7,0l4,4c0.2,0.2,0.2,0.5,0,0.7  C27.1,41.1,26.9,41.2,26.8,41.2z"/><path d="M75.7,41.1c-3.3,0-6.4-1.3-8.8-3.6L44.5,14.9c-5.7-5.7-14.9-5.7-20.6,0c-2.8,2.8-4.3,6.4-4.3,10.3c0,3.9,1.5,7.5,4.3,10.3  c0.6,0.6,0.6,1.5,0,2.1s-1.5,0.6-2.1,0c-3.3-3.3-5.1-7.7-5.1-12.4c0-4.7,1.8-9.1,5.1-12.4c6.9-6.9,18-6.9,24.9,0l22.5,22.5  c1.8,1.8,4.1,2.8,6.7,2.8c2.5,0,4.9-1,6.7-2.8l2.1,2.1C82.2,39.8,79,41.1,75.7,41.1z"/></svg>