<svg xmlns="http://www.w3.org/2000/svg" xmlns:xlink="http://www.w3.org/1999/xlink" viewBox="0 0 100 100" version="1.1" x="0px" y="0px"><title>1</title><desc>Created with Sketch.</desc><g stroke="none" stroke-width="1" fill="none" fill-rule="evenodd"><g fill="#000000"><path d="M82.1538571,74.4065166 C81.6487273,79.6251076 79.5956753,84.5368493 76.3728182,88.237045 C71.9495714,93.3157143 65.8457403,95.8908611 58.2308052,95.8908611 C52.4240519,95.8908611 46.9301558,93.8693346 41.9014545,89.8826419 C38.0766494,86.8503523 35.9754805,83.760137 35.9565844,83.7319569 C35.9324286,83.6961448 35.9074935,83.6609198 35.881,83.6264775 C30.0717143,76.0709002 19.9192468,57.2738356 16.9461299,51.6926223 C16.8385974,51.4908611 16.913013,51.2362622 17.0458701,51.1597456 C18.1453506,50.5292172 19.3361948,50.2256947 20.5159351,50.2256947 C22.7201558,50.2256947 24.8852208,51.2859687 26.3380779,53.2546575 L36.6115195,67.174227 C37.111974,67.8525049 37.988987,68.1321526 38.7872987,67.8669863 C39.5854156,67.6022114 40.1244416,66.853092 40.1244416,66.008865 L40.1244416,8.35054795 C40.1244416,7.08440313 40.6198312,5.87500978 41.4835974,5.03215264 C42.2521039,4.28225049 43.2407403,3.88675147 44.2716494,3.91571429 C46.4355455,3.97931507 48.196,6.02823875 48.196,8.48342466 L48.196,38.7609198 L48.196,44.5667906 C48.196,45.6476125 49.0681429,46.5237378 50.1440519,46.5237378 C51.2197662,46.5237378 52.0921039,45.6476125 52.0921039,44.5667906 L52.0921039,38.8153229 C52.1822987,36.432544 53.9497662,34.5677691 56.1218442,34.5677691 C58.3471039,34.5677691 60.1576234,36.5579843 60.1576234,39.0039726 L60.1576234,46.7429159 C60.1576234,47.8237378 61.0297662,48.699863 62.1056753,48.699863 C63.1813896,48.699863 64.0537273,47.8237378 64.0537273,46.7429159 C64.0537273,44.2967319 65.8642468,42.3067123 68.0895065,42.3067123 C70.3147662,42.3067123 72.1252857,44.2967319 72.1252857,46.7429159 L72.1252857,52.9691389 C72.1252857,53.2131703 72.1706753,53.4550489 72.2591169,53.6822505 L72.368987,53.964638 C72.6865195,54.7797065 73.5033377,55.2847945 74.3713896,55.1992759 C75.2384675,55.1145401 75.9444416,54.4618982 76.0998961,53.6008415 C76.4733377,51.5339139 78.1375584,50.0337182 80.056974,50.0337182 C82.2557403,50.0337182 84.0495065,51.976771 84.091974,54.3828376 L82.1538571,74.4065166 Z M80.056974,46.1198239 C78.5953506,46.1198239 77.2114545,46.5409589 76.0213896,47.2824462 L76.0213896,46.7429159 C76.0213896,42.1386106 72.4630779,38.392818 68.0895065,38.392818 C66.616974,38.392818 65.2365844,38.8174755 64.0537273,39.5566145 L64.0537273,39.0039726 C64.0537273,34.3996673 60.4954156,30.6538748 56.1218442,30.6538748 C54.6497013,30.6538748 53.2722338,31.0707045 52.0921039,31.8004501 L52.0921039,8.48342466 C52.0921039,3.93195695 48.6348961,0.128043053 44.385026,0.00358121331 C42.2957403,-0.0602152642 40.2995714,0.731174168 38.768987,2.22452055 C37.1544416,3.80005871 36.2283377,6.03273973 36.2283377,8.35054795 L36.2283377,60.0836204 L29.468013,50.9235421 C26.0439221,46.2844031 20.0076883,44.9544618 15.113987,47.7609198 C13.1369091,48.8951663 12.4176883,51.4875342 13.5111299,53.5393933 C17.3600909,60.764638 26.9295065,78.3662035 32.7627532,85.9736399 C33.0995714,86.4644423 35.3704156,89.664638 39.3767792,92.8667906 C45.0561299,97.4055382 51.5756753,99.8047554 58.2308052,99.8047554 C67.0188571,99.8047554 74.1091818,96.7799022 79.3052208,90.8143444 C83.0595065,86.5035812 85.4484026,80.8110176 86.0316494,74.7853816 L87.9797013,54.6591585 C87.9857403,54.5963405 87.9888571,54.5331311 87.9888571,54.4699217 C87.9888571,49.8656164 84.4307403,46.1198239 80.056974,46.1198239 L80.056974,46.1198239 Z"/></g></g></svg>